<?xml version="1.0" encoding="UTF-8"?>
<svg id="Layer_1" xmlns="http://www.w3.org/2000/svg" version="1.1" xmlns:xlink="http://www.w3.org/1999/xlink" viewBox="0 0 110.1 48">
  <!-- Generator: Adobe Illustrator 29.2.1, SVG Export Plug-In . SVG Version: 2.1.0 Build 116)  -->
  <defs>
    <style>
      .st0 {
        fill: none;
      }

      .st1 {
        fill: #232323;
      }

      .st2 {
        fill: #ffb600;
      }

      .st3 {
        clip-path: url(#clippath);
      }
    </style>
    <clipPath id="clippath">
      <rect class="st0" width="30" height="48"/>
    </clipPath>
  </defs>
  <g class="st3">
    <path class="st2" d="M30,23.6l-8.2,22.6c-.4,1.1-1.4,1.8-2.6,1.8H7.8l8.2-22.7c-.6-.7-2-.8-2.6-.9-.5-.1-2.2-.2-2.5-.8L0,0h11.4c1.2,0,2.3.7,2.8,1.8l9.3,20c.2.5.7.8,1.2.9.8,0,1.6.2,2.2.2,1.5,0,2.8.4,3.1.8h0Z"/>
  </g>
  <path class="st1" d="M97.5,47.7v-12.4c0-1.6.8-2.4,2.3-2.4h5.3c3.3,0,5,1.6,5,4.8v10h-2.4v-9.6c0-2.2-1-3.3-3-3.3h-4.1c-.3,0-.5,0-.7.2-.1.1-.2.4-.2.7v12h-2.4Z"/>
  <path class="st1" d="M81.7,34.4c1.2-1.1,3.1-1.7,5.9-1.7s4.6.6,5.8,1.7c1.2,1.1,1.8,3.1,1.8,5.8s-.6,4.8-1.8,5.9c-1.2,1.2-3.1,1.7-5.8,1.7s-4.7-.6-5.9-1.7c-1.2-1.2-1.8-3.1-1.8-5.9s.6-4.7,1.8-5.8ZM82.4,40.2c0,2.1.4,3.6,1.1,4.5.8.9,2.1,1.3,4,1.3s3.2-.4,4-1.3c.8-.9,1.2-2.3,1.2-4.5s-.4-3.5-1.1-4.4c-.8-.8-2.1-1.3-4-1.3s-3.2.4-4,1.3c-.8.8-1.1,2.3-1.1,4.4Z"/>
  <path class="st1" d="M72.5,47.7v-9.5c0-1.8.4-3.2,1.3-4,.9-.9,2.3-1.3,4.1-1.3h1.6v1.9h-1.2c-1.3,0-2.2.3-2.7,1-.5.7-.8,1.7-.8,3.1v8.9h-2.4Z"/>
  <path class="st1" d="M58,32.9h7.8c1.3,0,2.2.4,2.9,1.1.7.7,1,1.7,1,3v8.5c0,.8-.2,1.4-.5,1.7-.4.4-1,.5-1.8.5h-6.6c-1.3,0-2.3-.4-2.9-1.1-.6-.7-.9-1.9-.9-3.4,0-3,1.3-4.5,3.9-4.5h6.6v-1.8c0-1.4-.7-2.1-2.1-2.1h-7.2v-1.9ZM67.3,40.6h-6.1c-.7,0-1.2.2-1.5.7-.3.4-.4,1.1-.4,1.9s.1,1.5.4,2c.3.4.8.7,1.5.7h5.3c.5,0,.8-.3.8-.8v-4.5Z"/>
  <path class="st1" d="M40.6,38.9v5.2c0,.6,0,1,.2,1.2.2.2.5.3,1.1.3h7.1c1.1,0,1.8-.3,2.2-.8.4-.5.6-1.4.6-2.6s-.2-1.9-.6-2.5c-.4-.6-1.1-.9-2-.9h-8.6ZM40.6,31.5v5.3h8.3c1,0,1.7-.3,2.1-.8.4-.5.6-1.4.6-2.6s-.2-1.8-.5-2.4c-.4-.5-1-.8-1.9-.8h-7.3c-.5,0-.8,0-1,.3-.2.2-.3.5-.3,1ZM51.6,37.8c1,.1,1.8.6,2.2,1.3.5.7.7,1.8.7,3.2s-.3,2.9-.9,3.9c-.6,1-1.7,1.4-3.3,1.4h-9.5c-.9,0-1.6-.2-2-.6-.5-.4-.7-1.1-.7-2.1v-14.1c0-1.8.9-2.8,2.6-2.8h9.5c2.8,0,4.2,1.8,4.2,5.3s-.9,4-2.7,4.3h0Z"/>
  <path class="st1" d="M82.4,19.7h-4.5c-2.3,0-3.9-.6-4.8-1.8-.9-1.2-1.3-3.1-1.3-5.6s.4-4.3,1.3-5.6c.9-1.2,2.5-1.8,4.8-1.8h4.5V.1h2.4v17.3c0,.8-.2,1.3-.5,1.7-.3.4-.9.6-1.7.6ZM82.3,6.8h-4c-1.7,0-2.8.4-3.3,1.3-.5.9-.8,2.2-.8,4.2s.3,3.4.8,4.3c.5.8,1.7,1.3,3.3,1.3h3c.4,0,.6,0,.8-.2.1-.2.2-.4.2-.8V6.8Z"/>
  <path class="st1" d="M69.4,19.7h-7.8c-2.1,0-3.5-.6-4.2-1.8-.7-1.2-1.1-3.1-1.1-5.5s.5-4.7,1.5-5.9c1-1.2,2.8-1.8,5.2-1.8s3.8.4,5,1.3c1.2.9,1.8,2.3,1.8,4.5s-.2,1.6-.5,2c-.3.4-.9.6-1.7.6h-8.8c0,.7,0,1.3.1,1.8,0,.5.3,1,.5,1.5.2.5.6.9,1,1.1.5.2,1.1.4,1.8.4h7.3v1.9ZM58.8,11.2h7.9c.4,0,.7-.3.7-.8h0c0-2.6-1.4-3.8-4.3-3.8s-2.7.3-3.3,1c-.7.7-1,1.8-1,3.5Z"/>
  <path class="st1" d="M38,19.7V3.1c0-2,1-3,2.9-3h9.1c1.7,0,2.9.5,3.7,1.5.7,1,1.1,2.5,1.1,4.4s-.3,3.6-1,4.6c-.7,1.1-1.8,1.6-3.4,1.6h-3.2c0,.1,8,7.4,8,7.4h-3.5l-7.5-6.9c-.5-.4-.7-.9-.7-1.2v-.4c0-.7.4-1,1.2-1h4.8c1.1,0,1.8-.3,2.1-1,.3-.7.5-1.7.5-3.1s-.2-2.3-.6-2.9c-.4-.6-1.2-.9-2.4-.9h-7c-.5,0-.8.1-1.1.3-.2.2-.3.5-.3,1v16.1h-2.6Z"/>
</svg>